<svg width="882" height="915" viewBox="0 0 882 915" fill="none" xmlns="http://www.w3.org/2000/svg">
<path d="M139.673 82.3994L372.385 288.783L131.632 393.341L139.673 82.3994Z" fill="#D9D9D9"/>
<path d="M745.053 68.2138L736.587 381.862L499.641 263.712L745.053 68.2138Z" fill="#D9D9D9"/>
<path d="M165.698 153.51L352.703 319.358L159.236 403.379L165.698 153.51Z" fill="#EEAFAF"/>
<path d="M715.047 145.586L696.139 394.822L512.19 291.617L715.047 145.586Z" fill="#EEAFAF"/>
<circle cx="438.5" cy="563.501" r="351.5" fill="#D9D9D9"/>
<path fill-rule="evenodd" clip-rule="evenodd" d="M481.012 669.371C482.616 668.487 484.089 667.287 485.34 665.77L524.279 618.559C532.317 608.813 525.443 594.102 512.81 594.015L435.584 593.486C422.951 593.399 415.875 608.014 423.78 617.87L462.067 665.611C464.17 668.234 466.938 669.939 469.904 670.724L469.002 671.84L423.131 728.562L391.917 753.254L351.038 763.701L311.369 753.214L275.988 728.211L251.173 701.055L236.149 665.957C234.193 661.388 228.903 659.269 224.334 661.225C219.764 663.181 217.645 668.471 219.602 673.041L235.226 709.542L235.827 710.945L236.856 712.071L263.356 741.071L264.012 741.789L264.806 742.35L302.306 768.85L303.631 769.786L305.2 770.201L348.7 781.701L350.962 782.299L353.228 781.72L398.228 770.22L400.083 769.746L401.584 768.559L435.084 742.059L435.869 741.438L436.498 740.659L475.983 691.834L520.488 747.142L521.481 748.376L522.835 749.197L555.835 769.197L556.886 769.834L558.069 770.166L599.069 781.666L601.649 782.389L604.205 781.584L640.705 770.084L641.893 769.71L642.935 769.026L673.435 749.026L674.834 748.109L675.81 746.751L701.31 711.251L701.683 710.731L701.979 710.164L716.854 681.663C719.154 677.257 717.446 671.82 713.04 669.52C708.633 667.221 703.197 668.928 700.897 673.335L686.317 701.269L662.166 734.891L634.107 753.29L601.351 763.611L564.114 753.166L533.519 734.624L483.012 671.857L481.012 669.371Z" fill="#020202"/>
<circle cx="328" cy="488" r="50" fill="#181717"/>
<circle cx="605" cy="479" r="50" fill="#0F0D0D"/>
</svg>
