<svg width="560" height="730" viewBox="0 0 560 730" fill="none" xmlns="http://www.w3.org/2000/svg">
<path d="M42.1064 318.737C40.1634 319.13 38.8937 316.761 40.2971 315.361L281.847 74.3667C282.482 73.7332 283.461 73.5999 284.242 74.0405L534.915 215.417C536.529 216.327 536.145 218.752 534.33 219.119L42.1064 318.737Z" fill="white"/>
<path d="M55.1358 559.1C49.3068 560.279 45.4978 553.172 49.7078 548.971L279.699 319.509C281.604 317.609 284.541 317.209 286.884 318.531L525.563 453.142C530.403 455.872 529.252 463.147 523.805 464.249L55.1358 559.1Z" fill="#D9D9D9"/>
<path d="M40 318.5L528.5 220.5V464L40 560V318.5Z" fill="#CCBC81"/>
<path fill-rule="evenodd" clip-rule="evenodd" d="M285.588 116.562C280.519 119.391 274.695 121 268.5 121C248.894 121 233 104.882 233 85C233 65.1177 248.894 49 268.5 49C285.896 49 300.37 61.6885 303.412 78.4375C308.481 75.6089 314.305 74 320.5 74C337.774 74 352.167 86.5117 355.346 103.086C361.254 98.6343 368.574 96 376.5 96C393.281 96 407.342 107.807 411.046 123.675C415.196 121.951 419.738 121 424.5 121C442.271 121 456.992 134.241 459.592 151.525C465.067 148.025 471.55 146 478.5 146C494.055 146 507.274 156.146 512.072 170.268C515.94 168.801 520.128 168 524.5 168C544.106 168 560 184.118 560 204C560 223.882 544.106 240 524.5 240C508.945 240 495.726 229.854 490.928 215.732C487.06 217.199 482.872 218 478.5 218C460.729 218 446.008 204.759 443.408 187.475C437.933 190.975 431.45 193 424.5 193C407.719 193 393.658 181.193 389.954 165.325C385.804 167.049 381.262 168 376.5 168C359.226 168 344.833 155.488 341.654 138.914C335.746 143.366 328.426 146 320.5 146C303.104 146 288.63 133.312 285.588 116.562Z" fill="#EAA7A7"/>
<path d="M40 367L529 272.5V324.5L40 420V367Z" fill="#DE3939"/>
<path d="M39 459.5L528 365V417L39 512.5V459.5Z" fill="#DE3939"/>
<path d="M328.857 204.322C302.789 234.43 232.102 264.522 199.662 238.396C167.223 212.271 185.315 139.822 211.383 109.713C237.45 79.6053 284.88 76.3766 317.32 102.502C349.759 128.627 354.925 174.214 328.857 204.322Z" fill="#E00000"/>
<path d="M345.161 167.186C338.991 174.313 340.472 114.24 295.811 127.442C298.852 90.2804 245.401 93.1289 251.571 86.0019C257.742 78.8748 294.753 82.7839 318.157 101.632C341.561 120.481 351.332 160.059 345.161 167.186Z" fill="#3A653C"/>
<path d="M329.828 77.0653C334.148 76.0781 338.268 79.231 338.252 83.512C338.239 86.8692 335.634 89.7054 332.181 90.1213L325.385 90.94C321.428 91.4166 318.086 94.031 316.779 97.6728L314.596 103.752C313.256 107.482 308.47 108.785 305.345 106.268C303.442 104.735 302.764 102.199 303.656 99.9534L308.07 88.8448C309.93 84.1631 314.072 80.6652 319.122 79.5114L329.828 77.0653Z" fill="#3A653C"/>
<ellipse cx="10.7301" cy="16.637" rx="10.7301" ry="16.637" transform="matrix(0.85819 0.513332 -0.54505 0.838404 234.738 100.073)" fill="#D9D9D9"/>
<ellipse cx="10.7301" cy="16.637" rx="10.7301" ry="16.637" transform="matrix(0.85819 0.513332 -0.54505 0.838404 203.377 198.334)" fill="#D9D9D9"/>
<ellipse cx="10.7301" cy="16.637" rx="10.7301" ry="16.637" transform="matrix(0.85819 0.513332 -0.54505 0.838404 319.81 157.911)" fill="#D9D9D9"/>
<ellipse cx="10.7301" cy="16.637" rx="10.7301" ry="16.637" transform="matrix(0.85819 0.513332 -0.54505 0.838404 271.437 185.463)" fill="#D9D9D9"/>
<ellipse cx="10.7301" cy="16.637" rx="10.7301" ry="16.637" transform="matrix(0.85819 0.513332 -0.54505 0.838404 272.27 124.992)" fill="#D9D9D9"/>
<ellipse cx="10.7301" cy="16.637" rx="10.7301" ry="16.637" transform="matrix(0.85819 0.513332 -0.54505 0.838404 227.649 153.004)" fill="#D9D9D9"/>
</svg>
